<svg height="15" viewBox="0 0 21 15" width="21" xmlns="http://www.w3.org/2000/svg" xmlns:xlink="http://www.w3.org/1999/xlink"><linearGradient id="a" x1="50%" x2="50%" y1="0%" y2="100%"><stop offset="0" stop-color="#fff"/><stop offset="1" stop-color="#f0f0f0"/></linearGradient><linearGradient id="b" x1="50%" x2="50%" y1="0%" y2="100%"><stop offset="0" stop-color="#d02f44"/><stop offset="1" stop-color="#b12537"/></linearGradient><linearGradient id="c" x1="50%" x2="50%" y1="0%" y2="100%"><stop offset="0" stop-color="#46467f"/><stop offset="1" stop-color="#3c3c6d"/></linearGradient><g fill="none" fill-rule="evenodd"><path d="m0 0h21v15h-21z" fill="url(#a)"/><path d="m0 0h21v1h-21zm0 2h21v1h-21zm0 2h21v1h-21zm0 2h21v1h-21zm0 2h21v1h-21zm0 2h21v1h-21zm0 2h21v1h-21zm0 2h21v1h-21z" fill="url(#b)"/><path d="m0 0h9v7h-9z" fill="url(#c)"/><path d="m1.5 2c-.27614237 0-.5-.22385763-.5-.5s.22385763-.5.5-.5.5.22385763.5.5-.22385763.5-.5.5zm2 0c-.27614237 0-.5-.22385763-.5-.5s.22385763-.5.5-.5.5.22385763.5.5-.22385763.5-.5.5zm2 0c-.27614237 0-.5-.22385763-.5-.5s.22385763-.5.5-.5.5.22385763.5.5-.22385763.5-.5.5zm2 0c-.27614237 0-.5-.22385763-.5-.5s.22385763-.5.5-.5.5.22385763.5.5-.22385763.5-.5.5zm-5 1c-.27614237 0-.5-.22385763-.5-.5s.22385763-.5.5-.5.5.22385763.5.5-.22385763.5-.5.5zm2 0c-.27614237 0-.5-.22385763-.5-.5s.22385763-.5.5-.5.5.22385763.5.5-.22385763.5-.5.5zm2 0c-.27614237 0-.5-.22385763-.5-.5s.22385763-.5.5-.5.5.22385763.5.5-.22385763.5-.5.5zm1 1c-.27614237 0-.5-.22385763-.5-.5s.22385763-.5.5-.5.5.22385763.5.5-.22385763.5-.5.5zm-2 0c-.27614237 0-.5-.22385763-.5-.5s.22385763-.5.5-.5.5.22385763.5.5-.22385763.5-.5.5zm-2 0c-.27614237 0-.5-.22385763-.5-.5s.22385763-.5.5-.5.5.22385763.5.5-.22385763.5-.5.5zm-2 0c-.27614237 0-.5-.22385763-.5-.5s.22385763-.5.5-.5.5.22385763.5.5-.22385763.5-.5.5zm1 1c-.27614237 0-.5-.22385763-.5-.5s.22385763-.5.5-.5.5.22385763.5.5-.22385763.5-.5.5zm2 0c-.27614237 0-.5-.22385763-.5-.5s.22385763-.5.5-.5.5.22385763.5.5-.22385763.5-.5.5zm2 0c-.27614237 0-.5-.22385763-.5-.5s.22385763-.5.5-.5.5.22385763.5.5-.22385763.5-.5.5zm1 1c-.27614237 0-.5-.22385763-.5-.5s.22385763-.5.5-.5.5.22385763.5.5-.22385763.5-.5.5zm-2 0c-.27614237 0-.5-.22385763-.5-.5s.22385763-.5.5-.5.5.22385763.5.5-.22385763.5-.5.5zm-2 0c-.27614237 0-.5-.22385763-.5-.5s.22385763-.5.5-.5.5.22385763.5.5-.22385763.5-.5.5zm-2 0c-.27614237 0-.5-.22385763-.5-.5s.22385763-.5.5-.5.5.22385763.5.5-.22385763.5-.5.5z" fill="url(#a)"/></g></svg>